{"title":"Barbarella(1968)MPEG-4[DaScubaDude]","uid":13536123,"size":978983519,"categoryP":"video","categoryS":"movies","magnet":"?xt=urn:btih:f52ea964fa9bb20b24c74c7f49c4468d9b957cc2&amp;dn=Barbarella%281968%29MPEG-4%5BDaScubaDude%5D&amp;tr=udp%3A%2F%2Ftracker.leechers-paradise.org%3A6969&amp;tr=udp%3A%2F%2Fzer0day.ch%3A1337&amp;tr=udp%3A%2F%2Fopen.demonii.com%3A1337&amp;tr=udp%3A%2F%2Ftracker.coppersurfer.tk%3A6969&amp;tr=udp%3A%2F%2Fexodus.desync.com%3A6969","seeders":0,"leechers":0,"uploader":"dascuba","files":1,"time":1455443769,"description":"Barbarella (1968)\r\nPG | 1h 38min | Adventure, Comedy, Fantasy | 10 October 1968 (USA)\r\nIn the far future, a highly sexual woman is assigned with finding and stopping the evil Durand-Durand. Along the way, she encounters various unusual people.\r\nDirector: Roger Vadim\r\nWriters: Jean-Claude Forest (comic &quot;Barbarella&quot;) (as Jean Claude Forest), Claude Brulé (collaborating writer) (as Claude Brule) | 7 more credits »\r\nStars: Jane Fonda, John Phillip Law, Anita Pallenberg \r\n\r\nGeneral\r\nComplete name                            :BarbarellaBARB_Title1.mp4\r\nFormat                                   : MPEG-4\r\nFormat profile                           : Base Media\r\nCodec ID                                 : isom\r\nFile size                                : 934 MiB\r\nDuration                                 : 1h 37mn\r\nOverall bit rate                         : 1 333 Kbps\r\nMovie name                               : BARB\r\nWriting application                      : Lavf54.6.100\r\n\r\nVideo\r\nID                                       : 1\r\nFormat                                   : AVC\r\nFormat/Info                              : Advanced Video Codec\r\nFormat profile                           :   \r\nFormat settings, CABAC                   : No\r\nFormat settings, ReFrames                : 6 frames\r\nCodec ID                                 : avc1\r\nCodec ID/Info                            : Advanced Video Coding\r\nDuration                                 : 1h 37mn\r\nBit rate                                 : 1 194 Kbps\r\nWidth                                    : 720 pixels\r\nHeight                                   : 404 pixels\r\nDisplay aspect ratio                     : 16:9\r\nFrame rate mode                          : Constant\r\nFrame rate                               : 29.970 fps\r\nColor space                              : YUV\r\nChroma subsampling                       : 4:2:0\r\nBit depth                                : 8 bits\r\nScan type                                : Progressive\r\nBits/(Pixel*Frame)                       : 0.137\r\nStream size                              : 836 MiB (90%)\r\n\r\nAudio\r\nID                                       : 2\r\nFormat                                   : AAC\r\nFormat/Info                              : Advanced Audio Codec\r\nFormat profile                           : LC\r\nCodec ID                                 : 40\r\nDuration                                 : 1h 37mn\r\nBit rate mode                            : Constant\r\nBit rate                                 : 132 Kbps\r\nChannel(s)                               : 2 channels\r\nChannel positions                        : Front: L R\r\nSampling rate                            : 44.1 KHz\r\nCompression mode                         : Lossy\r\nStream size                              : 92.5 MiB (10%)","torrent":{"xt":"urn:btih:f52ea964fa9bb20b24c74c7f49c4468d9b957cc2","amp;dn":"Barbarella%281968%29MPEG-4%5BDaScubaDude%5D","amp;tr":["udp%3A%2F%2Ftracker.leechers-paradise.org%3A6969","udp%3A%2F%2Fzer0day.ch%3A1337","udp%3A%2F%2Fopen.demonii.com%3A1337","udp%3A%2F%2Ftracker.coppersurfer.tk%3A6969","udp%3A%2F%2Fexodus.desync.com%3A6969"],"infoHash":"f52ea964fa9bb20b24c74c7f49c4468d9b957cc2","infoHashBuffer":{"type":"Buffer","data":[245,46,169,100,250,155,178,11,36,199,76,127,73,196,70,141,155,149,124,194]},"announce":[],"urlList":[]}}